<svg xmlns="http://www.w3.org/2000/svg" xmlns:xlink="http://www.w3.org/1999/xlink" width="384" zoomAndPan="magnify" viewBox="40 40 208 208" height="384" preserveAspectRatio="xMidYMid meet" version="1.0"><defs><clipPath id="8ed2b82aec"><path d="M 39.820312 39.820312 L 248.179688 39.820312 L 248.179688 248.179688 L 39.820312 248.179688 Z M 39.820312 39.820312 " clip-rule="nonzero"/></clipPath><clipPath id="eecbc967d5"><path d="M 144 39.820312 C 86.464844 39.820312 39.820312 86.464844 39.820312 144 C 39.820312 201.535156 86.464844 248.179688 144 248.179688 C 201.535156 248.179688 248.179688 201.535156 248.179688 144 C 248.179688 86.464844 201.535156 39.820312 144 39.820312 Z M 144 39.820312 " clip-rule="nonzero"/></clipPath><clipPath id="7b8f71a9b7"><path d="M 0.820312 0.820312 L 209.179688 0.820312 L 209.179688 209.179688 L 0.820312 209.179688 Z M 0.820312 0.820312 " clip-rule="nonzero"/></clipPath><clipPath id="89c1fe062a"><path d="M 105 0.820312 C 47.464844 0.820312 0.820312 47.464844 0.820312 105 C 0.820312 162.535156 47.464844 209.179688 105 209.179688 C 162.535156 209.179688 209.179688 162.535156 209.179688 105 C 209.179688 47.464844 162.535156 0.820312 105 0.820312 Z M 105 0.820312 " clip-rule="nonzero"/></clipPath><clipPath id="daf77b0b45"><rect x="0" width="210" y="0" height="210"/></clipPath><clipPath id="c457d88b0e"><path d="M 57.796875 57.796875 L 230.203125 57.796875 L 230.203125 230.203125 L 57.796875 230.203125 Z M 57.796875 57.796875 " clip-rule="nonzero"/></clipPath><clipPath id="c4e83fa42f"><path d="M 144 57.796875 C 96.390625 57.796875 57.796875 96.390625 57.796875 144 C 57.796875 191.609375 96.390625 230.203125 144 230.203125 C 191.609375 230.203125 230.203125 191.609375 230.203125 144 C 230.203125 96.390625 191.609375 57.796875 144 57.796875 Z M 144 57.796875 " clip-rule="nonzero"/></clipPath><clipPath id="726e53f1e9"><path d="M 0.796875 0.796875 L 173.203125 0.796875 L 173.203125 173.203125 L 0.796875 173.203125 Z M 0.796875 0.796875 " clip-rule="nonzero"/></clipPath><clipPath id="48e6501037"><path d="M 87 0.796875 C 39.390625 0.796875 0.796875 39.390625 0.796875 87 C 0.796875 134.609375 39.390625 173.203125 87 173.203125 C 134.609375 173.203125 173.203125 134.609375 173.203125 87 C 173.203125 39.390625 134.609375 0.796875 87 0.796875 Z M 87 0.796875 " clip-rule="nonzero"/></clipPath><clipPath id="f8c4a974af"><rect x="0" width="174" y="0" height="174"/></clipPath><clipPath id="e05d4748f6"><path d="M 91 91.742188 L 199 91.742188 L 199 195.992188 L 91 195.992188 Z M 91 91.742188 " clip-rule="nonzero"/></clipPath></defs><g clip-path="url(#8ed2b82aec)"><g clip-path="url(#eecbc967d5)"><g transform="matrix(1, 0, 0, 1, 39, 39)"><g clip-path="url(#daf77b0b45)"><g clip-path="url(#7b8f71a9b7)"><g clip-path="url(#89c1fe062a)"><path fill="#ffbd59" d="M 0.820312 0.820312 L 209.179688 0.820312 L 209.179688 209.179688 L 0.820312 209.179688 Z M 0.820312 0.820312 " fill-opacity="1" fill-rule="nonzero"/></g></g></g></g></g></g><g clip-path="url(#c457d88b0e)"><g clip-path="url(#c4e83fa42f)"><g transform="matrix(1, 0, 0, 1, 57, 57)"><g clip-path="url(#f8c4a974af)"><g clip-path="url(#726e53f1e9)"><g clip-path="url(#48e6501037)"><path fill="#ffde59" d="M 0.796875 0.796875 L 173.203125 0.796875 L 173.203125 173.203125 L 0.796875 173.203125 Z M 0.796875 0.796875 " fill-opacity="1" fill-rule="nonzero"/></g></g></g></g></g></g><g clip-path="url(#e05d4748f6)"><path fill="#b67109" d="M 163.527344 91.84375 C 163.304688 91.847656 163.070312 91.859375 162.839844 91.875 C 153.675781 93.457031 148.632812 103.152344 147.902344 111.699219 C 146.835938 119.457031 150.253906 129.425781 158.769531 131.164062 C 160.007812 131.398438 161.289062 131.292969 162.496094 130.964844 C 172.753906 127.523438 177.34375 115.378906 175.859375 105.316406 C 175.429688 98.820312 170.53125 91.753906 163.527344 91.84375 Z M 124.664062 92.257812 C 118.964844 92.398438 114.523438 98.179688 113.621094 103.613281 C 111.714844 114.382812 116.613281 127.757812 127.832031 131.164062 C 128.882812 131.394531 129.96875 131.417969 131.027344 131.253906 C 138.609375 129.988281 141.820312 121.488281 141.503906 114.628906 C 141.277344 105.574219 136.574219 95.109375 127.175781 92.5625 C 126.316406 92.335938 125.476562 92.238281 124.664062 92.261719 Z M 188.367188 122.839844 C 178.503906 123.429688 171.746094 133.269531 170.78125 142.453125 C 169.476562 149.082031 173.007812 157.945312 180.570312 158.472656 C 191.113281 158.34375 198.304688 147.078125 198.601562 137.386719 C 199.269531 130.976562 195.492188 123.191406 188.367188 122.839844 Z M 102.058594 125.023438 C 97.863281 124.984375 93.738281 127.5 92.367188 131.761719 C 88.707031 143.171875 96.054688 157.617188 108.136719 160.015625 C 113.179688 160.878906 117.609375 157.007812 118.859375 152.347656 C 121.507812 142.382812 116.066406 130.808594 106.855469 126.289062 C 105.355469 125.445312 103.699219 125.039062 102.058594 125.023438 Z M 146.265625 145.476562 C 138.039062 145.496094 129.6875 149.667969 124.359375 155.882812 C 118.609375 163.121094 113.898438 171.550781 112.054688 180.6875 C 109.8125 187.265625 114.890625 194.835938 121.921875 194.882812 C 130.382812 195.117188 137.652344 189.308594 146.0625 188.875 C 153.199219 187.789062 159.589844 191.5 166.007812 193.929688 C 171.472656 196.265625 179.019531 195.371094 181.808594 189.492188 C 184.003906 183.5 180.773438 177.109375 178.097656 171.785156 C 172.644531 163.148438 166.796875 154.070312 157.851562 148.675781 C 154.265625 146.453125 150.28125 145.46875 146.265625 145.476562 Z M 146.265625 145.476562 " fill-opacity="1" fill-rule="nonzero"/></g></svg>
